<?xml version="1.0" encoding="UTF-8"?><svg id="a" xmlns="http://www.w3.org/2000/svg" width=".28in" height=".28in" viewBox="0 0 20 20.01"><path d="m3.22.59c.84-.84,2.22-.78,2.99.13l2.37,2.84c.62.74.63,1.81.03,2.56l-.02.02-2.22,2.5s0,.08,0,.17c.03.22.11.53.26.88.3.72.75,1.38,1,1.64h0s.51.52.51.52h0c.27.27,1.06.83,1.9,1.26.42.21.79.35,1.06.41.08.02.14.03.18.03l2.56-2.12h0c.75-.61,1.83-.59,2.56.02l2.83,2.38c.91.76.97,2.15.13,2.99l-.03.03-1.75,1.48c-1.42,1.2-3.43,2.15-5.53,1.48-2.82-.91-5.95-3.02-7.6-4.68l-.51-.52c-1.57-1.58-3.1-4.07-3.79-6.5C-.4,6.03.49,4.05,1.62,2.62l1.53-1.94s.05-.06.08-.09Z" fill="#a6a6a6"/></svg>