<?xml version="1.0" encoding="UTF-8"?><svg id="a" xmlns="http://www.w3.org/2000/svg" width=".33in" height=".33in" viewBox="0 0 24 24"><path d="m12,0c-3.26,0-3.67.01-4.95.07-1.28.06-2.15.26-2.91.56-.79.31-1.46.72-2.13,1.38-.67.67-1.08,1.34-1.38,2.13-.3.77-.5,1.64-.56,2.91-.06,1.28-.07,1.69-.07,4.95s.01,3.67.07,4.95c.06,1.28.26,2.15.56,2.91.31.79.72,1.46,1.38,2.13.67.67,1.34,1.08,2.13,1.38.77.3,1.64.5,2.91.56,1.28.06,1.69.07,4.95.07s3.67-.01,4.95-.07c1.28-.06,2.15-.26,2.91-.56.79-.31,1.46-.72,2.13-1.38.67-.67,1.08-1.34,1.38-2.13.3-.76.5-1.64.56-2.91.06-1.28.07-1.69.07-4.95s-.01-3.67-.07-4.95c-.06-1.28-.26-2.15-.56-2.91-.31-.79-.72-1.46-1.38-2.13-.67-.67-1.34-1.08-2.13-1.38-.76-.3-1.64-.5-2.91-.56-1.28-.06-1.69-.07-4.95-.07Zm0,2.16c3.2,0,3.59.02,4.85.07,1.17.06,1.81.25,2.23.41.56.22.96.48,1.38.9.42.42.68.82.9,1.38.16.42.36,1.06.41,2.23.06,1.27.07,1.65.07,4.85s-.01,3.59-.07,4.85c-.06,1.17-.26,1.81-.42,2.23-.22.56-.48.96-.9,1.38-.42.42-.82.68-1.38.9-.42.16-1.07.36-2.24.41-1.27.06-1.65.07-4.86.07s-3.59-.01-4.86-.07c-1.17-.06-1.82-.26-2.24-.42-.57-.22-.96-.48-1.38-.9-.42-.42-.69-.82-.9-1.38-.16-.42-.36-1.07-.42-2.24-.05-1.26-.06-1.65-.06-4.84s.02-3.59.06-4.86c.06-1.17.26-1.81.42-2.23.21-.57.48-.96.9-1.38s.81-.69,1.38-.9c.42-.17,1.05-.36,2.22-.42,1.27-.05,1.65-.06,4.86-.06,0,0,.05.03.05.03Zm0,3.68c-3.4,0-6.16,2.76-6.16,6.16s2.76,6.16,6.16,6.16,6.16-2.76,6.16-6.16-2.76-6.16-6.16-6.16Zm0,10.16c-2.21,0-4-1.79-4-4s1.79-4,4-4,4,1.79,4,4-1.79,4-4,4Zm7.85-10.4c0,.8-.65,1.44-1.44,1.44s-1.44-.65-1.44-1.44.65-1.44,1.44-1.44c.79,0,1.44.64,1.44,1.44Z" fill="#a6a6a6"/></svg>