<svg xmlns="http://www.w3.org/2000/svg" viewBox="0 0 836.7 111.2"><defs><style>.cls-1{fill:#524c48;}.cls-2{fill:#79b942;}</style></defs><g id="Layer_2" data-name="Layer 2"><g id="Layer_1-2" data-name="Layer 1"><g id="PayByPhone_v2-line"><path class="cls-1" d="M180.1,87.7c-12.9,0-18.5-6.6-19.7-8.4v30H145.2V25.2h14.4l.3,8c.6-.9,7.3-10.1,22-10.1,12.7,0,28.5,8.6,28.5,32.5,0,16.1-10.5,32.1-30.3,32.1m-2.5-52c-9.7,0-17.5,7.7-17.5,20,0,12,7.5,19.5,17.3,19.5,10.3,0,17.2-8,17.2-19.4.1-12.8-6.9-20.1-17-20.1"/><path class="cls-1" d="M258.7,85.8l-.4-6.8c-1.6,1.9-7.6,8.4-20,8.4-11.1,0-21.4-6-21.4-19.2a17.22,17.22,0,0,1,4.9-12.7c6.2-6.2,14.4-7.5,21.6-7.5h14.2v-.8c0-9-5.7-12-13.3-12-9.7,0-16.3,6.8-17.2,7.7L219,34.3c.5-.6,8.9-11.1,26.2-11.1,9.4,0,15.9,2.4,20.5,7,6.2,6.2,6.6,13.7,6.6,23.9V85.9H258.7Zm-9.8-27.4c-6.8,0-17.1.1-17.1,9.4,0,5.7,4.4,8.4,10,8.4s9.2-1.8,11.8-4.2c2.8-2.5,3.9-5.8,4.2-9.5V58.4Z"/><path class="cls-1" d="M314.1,93.7c-3.3,8.1-9,17.5-23.3,17.5-6.1,0-10-1.9-11.5-2.9l4.3-11a15.08,15.08,0,0,0,5.8,1.3c5.4,0,8-2.7,10.1-7,.4-.8,2.3-5.2,2.7-6.1l-26-60.1h16.2l17.3,43,17.3-43h15.7Z"/><path class="cls-2" d="M385.3,87.6c-13.8,0-19.9-8.1-20.5-9l-.4,7.2H350.3V0h15.2V32.8c.8-1,7.5-9.6,21.6-9.6,12.5,0,28.4,8.6,28.4,32.4.1,16.1-10.4,32-30.2,32m-2.5-51.8c-9.7,0-17.5,7.5-17.5,19.9,0,12,7.5,19.5,17.3,19.5,10.1,0,17.2-7.8,17.2-19.5.1-12.7-6.9-19.9-17-19.9"/><path class="cls-2" d="M455.7,93.7c-3.3,8.1-9,17.5-23.3,17.5-6.1,0-10-1.9-11.5-2.9l4.3-11a15.08,15.08,0,0,0,5.8,1.3c5.4,0,8-2.7,10.1-7,.4-.8,2.3-5.2,2.7-6.1L417.9,25.4h16.2l17.3,43,17.3-43h15.7Z"/><path class="cls-1" d="M527,87.7c-12.9,0-18.5-6.6-19.7-8.4v30H492.1V25.2h14.4l.3,8c.6-.9,7.3-10.1,22-10.1,12.6,0,28.5,8.6,28.5,32.5-.1,16.1-10.6,32.1-30.3,32.1m-2.5-52c-9.7,0-17.5,7.7-17.5,20,0,12,7.5,19.5,17.3,19.5,10.3,0,17.2-8,17.2-19.4,0-12.8-6.9-20.1-17-20.1"/><path class="cls-1" d="M609,85.8V51.7c0-5.3-.4-9.9-3.7-12.5-1.9-1.8-4.6-2.9-8.9-2.9a14.19,14.19,0,0,0-10.1,4.1c-4.2,4.2-4.3,10.9-4.3,18.2V85.8H566.8V0H582V32a24.84,24.84,0,0,1,19.6-8.9c5.9,0,11.6,1.5,16.6,6.5,5.2,5.3,5.9,12.8,5.9,19.6V85.8Z"/><path class="cls-1" d="M666.4,87.7c-23.2,0-33.3-16.8-33.3-32.3s10.1-32.3,33.3-32.3c23,0,33.2,16.8,33.2,32.3s-10.2,32.3-33.2,32.3m12-47.4a16.52,16.52,0,0,0-12-4.6c-5.2,0-9.2,1.6-12,4.6-3.4,3.5-5.6,8.7-5.6,15.2s2.2,11.6,5.6,15.2c2.8,2.9,7,4.6,12,4.6s9.1-1.6,12-4.6c3.4-3.5,5.4-8.7,5.4-15.2s-2-11.8-5.4-15.2"/><path class="cls-1" d="M751.3,85.8V51.7c0-5.3-.4-9.9-3.7-12.5-1.9-1.8-4.6-2.9-8.9-2.9a14.19,14.19,0,0,0-10.1,4.1c-4.2,4.2-4.3,10.9-4.3,18.2V85.8H709.1V25.3h14.4l.3,7.6A24.92,24.92,0,0,1,744,23.2c6,0,11.5,1.5,16.5,6.5,5.2,5.3,5.9,12.8,5.9,19.6V85.9H751.3Z"/><path class="cls-1" d="M790.9,60.3c0,6.7,4.9,15.4,17,15.4a25,25,0,0,0,18.4-8l8.5,7.8c-4.1,4.7-12.5,12.2-27.3,12.2-21.8,0-32-14.9-32-32,0-16.8,10.6-32.5,31.8-32.5,5.4,0,13.7,1.1,20.3,7.7,8.1,8.1,9.1,18.5,9.1,29.4Zm15.9-25.6c-12,0-15.6,11.1-15.6,14.7h30.4c0-4.3-3.2-14.7-14.8-14.7"/><path class="cls-2" d="M56.3,69.7H43.6a8,8,0,0,1-8-8V49a8,8,0,0,1,8-8H56.3a8,8,0,0,1,8,8V61.7A8,8,0,0,1,56.3,69.7Z"/><path class="cls-2" d="M92,69.7H79.3a8,8,0,0,1-8-8V49a8,8,0,0,1,8-8H92a8,8,0,0,1,8,8V61.7A8,8,0,0,1,92,69.7Z"/><path class="cls-2" d="M20.7,69.7H8a8,8,0,0,1-8-8V49a8,8,0,0,1,8-8H20.7a8,8,0,0,1,8,8V61.7A8.09,8.09,0,0,1,20.7,69.7Z"/><path class="cls-2" d="M56.3,34H43.6a8,8,0,0,1-8-8V13.3a8,8,0,0,1,8-8H56.3a8,8,0,0,1,8,8V26A8,8,0,0,1,56.3,34Z"/><path class="cls-2" d="M92,34H79.3a8,8,0,0,1-8-8V13.3a8,8,0,0,1,8-8H92a8,8,0,0,1,8,8V26A8,8,0,0,1,92,34Z"/><path class="cls-2" d="M20.7,34H8a8,8,0,0,1-8-8V13.3a8,8,0,0,1,8-8H20.7a8,8,0,0,1,8,8V26A8,8,0,0,1,20.7,34Z"/><path class="cls-2" d="M56.3,105.4H43.6a8,8,0,0,1-8-8V84.7a8,8,0,0,1,8-8H56.3a8,8,0,0,1,8,8V97.4A8,8,0,0,1,56.3,105.4Z"/><path class="cls-2" d="M92,105.4H79.3a8,8,0,0,1-8-8V84.7a8,8,0,0,1,8-8H92a8,8,0,0,1,8,8V97.4A8,8,0,0,1,92,105.4Z"/><path class="cls-2" d="M20.7,105.4H8a8,8,0,0,1-8-8V84.7a8,8,0,0,1,8-8H20.7a8,8,0,0,1,8,8V97.4A8.09,8.09,0,0,1,20.7,105.4Z"/></g></g></g></svg>