<svg xmlns="http://www.w3.org/2000/svg" xmlns:xlink="http://www.w3.org/1999/xlink" viewBox="0 0 320 650" width="320" height="650" preserveAspectRatio="xMidYMid meet" style="width: 100%; height: 100%; transform: translate3d(0px, 0px, 0px); content-visibility: visible;"><defs><clipPath id="__lottie_element_25"><rect width="375" height="667" x="0" y="0"></rect></clipPath></defs><g clip-path="url(#__lottie_element_25)"><g transform="matrix(1,0,0,1,187.5,382.9930114746094)" opacity="1" style="display: block;"><g opacity="1" transform="matrix(1,0,0,1,0,0)"><path stroke-linecap="round" stroke-linejoin="miter" fill-opacity="0" stroke-miterlimit="4" stroke="rgb(0,0,0)" stroke-opacity="1" stroke-width="16" d=" M-80.5,0 C-80.5,0 80.5,0 80.5,0"></path></g></g><g transform="matrix(1,0,0,1,187.5,332.9930114746094)" opacity="1" style="display: block;"><g opacity="1" transform="matrix(1,0,0,1,0,0)"><path stroke-linecap="round" stroke-linejoin="miter" fill-opacity="0" stroke-miterlimit="4" stroke="rgb(0,0,0)" stroke-opacity="1" stroke-width="16" d=" M-80.5,0 C-80.5,0 80.5,0 80.5,0"></path></g></g><g transform="matrix(1,0,0,1,187.5,282.9930114746094)" opacity="1" style="display: block;"><g opacity="1" transform="matrix(1,0,0,1,0,0)"><path stroke-linecap="round" stroke-linejoin="miter" fill-opacity="0" stroke-miterlimit="4" stroke="rgb(0,0,0)" stroke-opacity="1" stroke-width="16" d=" M-80.5,0 C-80.5,0 80.5,0 80.5,0"></path></g></g></g></svg>