<?xml version="1.0" encoding="UTF-8"?><svg id="a" xmlns="http://www.w3.org/2000/svg" width=".25in" height=".25in" viewBox="0 0 18 18.04"><path d="m0,3C0,1.34,1.34,0,3,0h12c1.66,0,3,1.34,3,3v10c0,1.66-1.34,3-3,3h-3.36c-.3,0-.58.13-.77.36l-1.1,1.32c-.4.48-1.14.48-1.54,0l-1.1-1.32c-.19-.23-.47-.36-.77-.36h-3.36c-1.66,0-3-1.34-3-3V3Zm9.27,1.17c-.1-.22-.43-.22-.53,0l-1.04,2.32c-.04.09-.14.16-.24.16l-2.69.2c-.26.02-.36.32-.16.47l2.05,1.64c.08.07.12.17.09.27l-.63,2.45c-.06.23.21.42.43.29l2.3-1.31c.09-.05.21-.05.3,0l2.3,1.31c.22.12.49-.06.43-.29l-.63-2.45c-.02-.1.01-.2.09-.27l2.05-1.64c.19-.16.09-.45-.16-.47l-2.69-.2c-.11,0-.2-.07-.24-.16l-1.04-2.32Z" fill="#a6a6a6" fill-rule="evenodd"/></svg>