<?xml version="1.0" encoding="UTF-8"?><svg id="a" xmlns="http://www.w3.org/2000/svg" width=".31in" height=".31in" viewBox="0 0 22 22"><path d="m11,22c6.08,0,11-4.92,11-11S17.08,0,11,0,0,4.92,0,11s4.92,11,11,11Zm0-5c.55,0,1-.45,1-1s-.45-1-1-1-1,.45-1,1,.45,1,1,1Zm0-12c-.66,0-1.64.2-2.47.81-.88.65-1.53,1.71-1.53,3.26,0,.55.45,1,1,1s1-.45,1-1c0-.91.35-1.37.72-1.64.42-.31.95-.42,1.28-.42s.86.11,1.28.42c.37.27.72.74.72,1.64s-.35,1.37-.72,1.64c-.42.31-.95.42-1.28.42-.55,0-1,.45-1,1v.88c0,.55.45,1,1,1s1-.45,1-1h0c.48-.12,1-.34,1.47-.68.88-.65,1.53-1.71,1.53-3.26s-.65-2.61-1.53-3.26c-.83-.61-1.8-.81-2.47-.81Z" fill="#a6a6a6" fill-rule="evenodd"/></svg>