<?xml version="1.0" encoding="utf-8"?>
<!-- Generator: Adobe Illustrator 26.0.3, SVG Export Plug-In . SVG Version: 6.00 Build 0)  -->
<svg version="1.1" id="Layer_1" xmlns="http://www.w3.org/2000/svg" xmlns:xlink="http://www.w3.org/1999/xlink" x="0px" y="0px"
	 viewBox="0 0 836.7 111.2" style="enable-background:new 0 0 836.7 111.2;" xml:space="preserve">
<style type="text/css">
	.st0{fill:#FFFFFF;}
	.st1{fill:#79B942;}
</style>
<g id="Layer_2_00000119096634032969662630000006029142918567965613_">
	<g id="Layer_1-2">
		<g id="PayByPhone_v2-line">
			<path class="st0" d="M180.1,87.7c-12.9,0-18.5-6.6-19.7-8.4v30h-15.2V25.2h14.4l0.3,8c0.6-0.9,7.3-10.1,22-10.1
				c12.7,0,28.5,8.6,28.5,32.5C210.4,71.7,199.9,87.7,180.1,87.7 M177.6,35.7c-9.7,0-17.5,7.7-17.5,20c0,12,7.5,19.5,17.3,19.5
				c10.3,0,17.2-8,17.2-19.4C194.7,43,187.7,35.7,177.6,35.7"/>
			<path class="st0" d="M258.7,85.8l-0.4-6.8c-1.6,1.9-7.6,8.4-20,8.4c-11.1,0-21.4-6-21.4-19.2c-0.2-4.7,1.6-9.3,4.9-12.7
				c6.2-6.2,14.4-7.5,21.6-7.5h14.2v-0.8c0-9-5.7-12-13.3-12c-9.7,0-16.3,6.8-17.2,7.7l-8.1-8.6c0.5-0.6,8.9-11.1,26.2-11.1
				c9.4,0,15.9,2.4,20.5,7c6.2,6.2,6.6,13.7,6.6,23.9v31.8L258.7,85.8L258.7,85.8z M248.9,58.4c-6.8,0-17.1,0.1-17.1,9.4
				c0,5.7,4.4,8.4,10,8.4s9.2-1.8,11.8-4.2c2.8-2.5,3.9-5.8,4.2-9.5v-4.1H248.9z"/>
			<path class="st0" d="M314.1,93.7c-3.3,8.1-9,17.5-23.3,17.5c-6.1,0-10-1.9-11.5-2.9l4.3-11c1.8,0.8,3.8,1.3,5.8,1.3
				c5.4,0,8-2.7,10.1-7c0.4-0.8,2.3-5.2,2.7-6.1l-26-60.1h16.2l17.3,43l17.3-43h15.7L314.1,93.7z"/>
			<path class="st1" d="M385.3,87.6c-13.8,0-19.9-8.1-20.5-9l-0.4,7.2h-14.1V0h15.2v32.8c0.8-1,7.5-9.6,21.6-9.6
				c12.5,0,28.4,8.6,28.4,32.4C415.6,71.7,405.1,87.6,385.3,87.6 M382.8,35.8c-9.7,0-17.5,7.5-17.5,19.9c0,12,7.5,19.5,17.3,19.5
				c10.1,0,17.2-7.8,17.2-19.5C399.9,43,392.9,35.8,382.8,35.8"/>
			<path class="st1" d="M455.7,93.7c-3.3,8.1-9,17.5-23.3,17.5c-6.1,0-10-1.9-11.5-2.9l4.3-11c1.8,0.8,3.8,1.3,5.8,1.3
				c5.4,0,8-2.7,10.1-7c0.4-0.8,2.3-5.2,2.7-6.1l-25.9-60.1h16.2l17.3,43l17.3-43h15.7L455.7,93.7z"/>
			<path class="st0" d="M527,87.7c-12.9,0-18.5-6.6-19.7-8.4v30h-15.2V25.2h14.4l0.3,8c0.6-0.9,7.3-10.1,22-10.1
				c12.6,0,28.5,8.6,28.5,32.5C557.2,71.7,546.7,87.7,527,87.7 M524.5,35.7c-9.7,0-17.5,7.7-17.5,20c0,12,7.5,19.5,17.3,19.5
				c10.3,0,17.2-8,17.2-19.4C541.5,43,534.6,35.7,524.5,35.7"/>
			<path class="st0" d="M609,85.8V51.7c0-5.3-0.4-9.9-3.7-12.5c-1.9-1.8-4.6-2.9-8.9-2.9c-3.8,0-7.4,1.4-10.1,4.1
				c-4.2,4.2-4.3,10.9-4.3,18.2v27.2h-15.2V0H582v32c4.8-5.8,12.1-9.1,19.6-8.9c5.9,0,11.6,1.5,16.6,6.5c5.2,5.3,5.9,12.8,5.9,19.6
				v36.6H609z"/>
			<path class="st0" d="M666.4,87.7c-23.2,0-33.3-16.8-33.3-32.3s10.1-32.3,33.3-32.3c23,0,33.2,16.8,33.2,32.3
				S689.4,87.7,666.4,87.7 M678.4,40.3c-3.2-3.1-7.5-4.7-12-4.6c-5.2,0-9.2,1.6-12,4.6c-3.4,3.5-5.6,8.7-5.6,15.2s2.2,11.6,5.6,15.2
				c2.8,2.9,7,4.6,12,4.6s9.1-1.6,12-4.6c3.4-3.5,5.4-8.7,5.4-15.2S681.8,43.7,678.4,40.3"/>
			<path class="st0" d="M751.3,85.8V51.7c0-5.3-0.4-9.9-3.7-12.5c-1.9-1.8-4.6-2.9-8.9-2.9c-3.8,0-7.4,1.4-10.1,4.1
				c-4.2,4.2-4.3,10.9-4.3,18.2v27.2h-15.2V25.3h14.4l0.3,7.6c4.8-6.2,12.3-9.8,20.2-9.7c6,0,11.5,1.5,16.5,6.5
				c5.2,5.3,5.9,12.8,5.9,19.6v36.6L751.3,85.8L751.3,85.8z"/>
			<path class="st0" d="M790.9,60.3c0,6.7,4.9,15.4,17,15.4c7,0,13.7-2.9,18.4-8l8.5,7.8c-4.1,4.7-12.5,12.2-27.3,12.2
				c-21.8,0-32-14.9-32-32c0-16.8,10.6-32.5,31.8-32.5c5.4,0,13.7,1.1,20.3,7.7c8.1,8.1,9.1,18.5,9.1,29.4L790.9,60.3z M806.8,34.7
				c-12,0-15.6,11.1-15.6,14.7h30.4C821.6,45.1,818.4,34.7,806.8,34.7"/>
			<path class="st1" d="M56.3,69.7H43.6c-4.4,0-8-3.6-8-8V49c0-4.4,3.6-8,8-8h12.7c4.4,0,8,3.6,8,8v0v12.7
				C64.3,66.1,60.7,69.7,56.3,69.7L56.3,69.7z"/>
			<path class="st1" d="M92,69.7H79.3c-4.4,0-8-3.6-8-8V49c0-4.4,3.6-8,8-8H92c4.4,0,8,3.6,8,8v12.7C100,66.1,96.4,69.7,92,69.7z"/>
			<path class="st1" d="M20.7,69.7H8c-4.4,0-8-3.6-8-8V49c0-4.4,3.6-8,8-8h12.7c4.4,0,8,3.6,8,8v12.7C28.7,66.1,25.1,69.7,20.7,69.7
				z"/>
			<path class="st1" d="M56.3,34H43.6c-4.4,0-8-3.6-8-8V13.3c0-4.4,3.6-8,8-8h12.7c4.4,0,8,3.6,8,8c0,0,0,0,0,0V26
				C64.3,30.4,60.7,34,56.3,34L56.3,34z"/>
			<path class="st1" d="M92,34H79.3c-4.4,0-8-3.6-8-8V13.3c0-4.4,3.6-8,8-8H92c4.4,0,8,3.6,8,8V26C100,30.4,96.4,34,92,34z"/>
			<path class="st1" d="M20.7,34H8c-4.4,0-8-3.6-8-8V13.3c0-4.4,3.6-8,8-8h12.7c4.4,0,8,3.6,8,8V26C28.7,30.4,25.1,34,20.7,34z"/>
			<path class="st1" d="M56.3,105.4H43.6c-4.4,0-8-3.6-8-8V84.7c0-4.4,3.6-8,8-8h12.7c4.4,0,8,3.6,8,8c0,0,0,0,0,0v12.7
				C64.3,101.8,60.7,105.4,56.3,105.4L56.3,105.4z"/>
			<path class="st1" d="M92,105.4H79.3c-4.4,0-8-3.6-8-8V84.7c0-4.4,3.6-8,8-8H92c4.4,0,8,3.6,8,8v12.7
				C100,101.8,96.4,105.4,92,105.4z"/>
			<path class="st1" d="M20.7,105.4H8c-4.4,0-8-3.6-8-8V84.7c0-4.4,3.6-8,8-8h12.7c4.4,0,8,3.6,8,8v12.7
				C28.7,101.8,25.1,105.4,20.7,105.4z"/>
		</g>
	</g>
</g>
</svg>
